<?xml version="1.0" encoding="utf-8"?>
<!-- Generator: Adobe Illustrator 17.0.0, SVG Export Plug-In . SVG Version: 6.00 Build 0)  -->
<!DOCTYPE svg PUBLIC "-//W3C//DTD SVG 1.1//EN" "http://www.w3.org/Graphics/SVG/1.1/DTD/svg11.dtd">
<svg version="1.1" id="Layer_1" xmlns="http://www.w3.org/2000/svg" xmlns:xlink="http://www.w3.org/1999/xlink" x="0px" y="0px"
	 width="612px" height="792px" viewBox="0 0 612 792" enable-background="new 0 0 612 792" xml:space="preserve">
<g>
	
		<linearGradient id="SVGID_1_" gradientUnits="userSpaceOnUse" x1="-6.4935" y1="-518.4471" x2="113.3827" y2="-518.4471" gradientTransform="matrix(4.861 0 0 -4.861 -1.9305 -2124.1719)">
		<stop  offset="0" style="stop-color:#115BC4"/>
		<stop  offset="1" style="stop-color:#05BDFD"/>
	</linearGradient>
	<path fill="url(#SVGID_1_)" d="M79.887,383.604l-21.875-3.403l-9.722-20.902c-0.486-1.458-1.944-2.431-3.889-2.431
		c-1.458,0-2.917,0.972-3.889,2.431l-9.722,20.902l-21.388,3.403c-1.458,0-2.917,1.458-3.403,2.917
		c-0.486,1.458,0,3.403,0.972,4.375l16.041,16.041l-3.889,22.847c-0.486,1.458,0.486,3.403,1.458,4.375
		c1.458,0.972,2.917,0.972,4.375,0.486l19.444-10.694l19.444,10.694c0.486,0.486,1.458,0.486,1.944,0.486
		c0.972,0,1.944-0.486,2.43-0.972c1.458-0.972,1.944-2.431,1.458-4.375l-3.889-22.847l16.041-16.041
		c0.972-0.972,1.458-2.917,0.972-4.375C82.804,384.577,81.346,383.604,79.887,383.604z"/>
</g>
<g display="none">
	
		<linearGradient id="SVGID_2_" gradientUnits="userSpaceOnUse" x1="-9.3736" y1="782.6028" x2="110.5026" y2="782.6028" gradientTransform="matrix(4.861 0 0 -4.861 -1.9305 4209.7119)">
		<stop  offset="0" style="stop-color:#115BC4"/>
		<stop  offset="1" style="stop-color:#05BDFD"/>
	</linearGradient>
	<path display="inline" fill="url(#SVGID_2_)" d="M108.664,394.299c0-4.375,1.944-8.264,5.833-11.666
		c3.889-2.917,8.75-4.861,15.069-4.861c6.319,0,11.18,1.458,14.583,4.861c3.889,2.917,5.833,7.292,5.833,12.639h-11.18
		c0-2.431-0.972-4.861-2.917-6.319c-1.458-1.458-3.889-2.431-6.805-2.431c-2.917,0-5.347,0.486-6.805,1.944
		c-1.458,1.458-2.43,2.917-2.43,5.347c0,1.944,0.972,3.889,3.403,4.861c1.944,1.458,4.861,1.944,7.778,2.917
		c2.917,0.486,6.319,1.458,9.236,1.944c2.917,0.972,5.833,2.431,7.778,4.861c1.944,2.43,3.403,5.347,3.403,9.236
		c0,4.861-1.944,8.264-5.833,11.18c-3.889,2.917-8.75,4.375-15.069,4.375c-6.319,0-11.18-1.458-15.069-4.375
		c-3.889-2.917-5.833-7.292-6.319-12.639h11.666c0,2.431,0.972,4.861,2.917,6.319s3.889,2.431,7.292,2.431
		c3.403,0,5.347-0.486,7.292-1.944c1.944-1.458,2.917-2.917,2.917-5.347c0-2.431-0.972-3.889-3.403-5.347
		c-1.944-1.458-4.861-1.944-7.778-2.917c-2.917-0.486-6.319-1.458-9.236-1.944c-2.917-0.972-5.833-2.431-7.778-4.375
		C109.636,400.618,108.664,397.701,108.664,394.299z"/>
	
		<linearGradient id="SVGID_3_" gradientUnits="userSpaceOnUse" x1="-9.3736" y1="783.9028" x2="110.5026" y2="783.9028" gradientTransform="matrix(4.861 0 0 -4.861 -1.9305 4209.7119)">
		<stop  offset="0" style="stop-color:#115BC4"/>
		<stop  offset="1" style="stop-color:#05BDFD"/>
	</linearGradient>
	<path display="inline" fill="url(#SVGID_3_)" d="M188.871,387.979h-13.125v29.652c0,1.944,0.486,3.403,1.458,4.375
		c0.972,0.972,2.43,1.458,4.861,1.458h6.805v9.236h-8.75c-10.208,0-15.555-4.861-15.555-15.069v-29.652h-6.319v-9.236h6.319v-13.125
		h11.18v13.125h13.125V387.979z"/>
	
		<linearGradient id="SVGID_4_" gradientUnits="userSpaceOnUse" x1="-9.3736" y1="782.6028" x2="110.5026" y2="782.6028" gradientTransform="matrix(4.861 0 0 -4.861 -1.9305 4209.7119)">
		<stop  offset="0" style="stop-color:#115BC4"/>
		<stop  offset="1" style="stop-color:#05BDFD"/>
	</linearGradient>
	<path display="inline" fill="url(#SVGID_4_)" d="M202.967,425.409c-4.861-5.347-7.292-11.666-7.292-19.93s2.43-14.583,7.292-19.93
		c4.861-4.861,10.694-7.778,17.986-7.778c4.375,0,7.778,0.972,11.18,2.917c3.403,1.944,5.833,4.375,7.292,7.292v-9.722h11.18v53.471
		h-11.18v-9.236c-1.944,3.403-4.375,5.833-7.292,7.778c-3.403,1.944-6.805,2.917-11.18,2.917
		C213.662,433.187,207.828,430.756,202.967,425.409z M234.564,418.604c3.403-3.403,4.861-7.778,4.861-13.125
		c0-5.347-1.458-9.722-4.861-13.125c-3.403-3.403-6.805-4.861-11.18-4.861s-8.264,1.458-11.18,4.861
		c-2.917,3.403-4.861,7.292-4.861,13.125c0,5.347,1.458,9.722,4.861,13.125c3.403,3.403,6.805,4.861,11.18,4.861
		C227.272,423.951,231.161,422.006,234.564,418.604z"/>
	
		<linearGradient id="SVGID_5_" gradientUnits="userSpaceOnUse" x1="-9.3736" y1="782.5529" x2="110.5026" y2="782.5529" gradientTransform="matrix(4.861 0 0 -4.861 -1.9305 4209.7119)">
		<stop  offset="0" style="stop-color:#115BC4"/>
		<stop  offset="1" style="stop-color:#05BDFD"/>
	</linearGradient>
	<path display="inline" fill="url(#SVGID_5_)" d="M276.369,378.743v9.722c3.403-6.805,8.75-10.208,16.041-10.208v11.666h-2.917
		c-4.375,0-7.778,0.972-9.722,3.403c-1.944,2.431-3.403,5.833-3.403,11.666v28.194h-11.18v-54.443H276.369z"/>
	
		<linearGradient id="SVGID_6_" gradientUnits="userSpaceOnUse" x1="-9.3736" y1="783.9529" x2="110.5026" y2="783.9529" gradientTransform="matrix(4.861 0 0 -4.861 -1.9305 4209.7119)">
		<stop  offset="0" style="stop-color:#115BC4"/>
		<stop  offset="1" style="stop-color:#05BDFD"/>
	</linearGradient>
	<path display="inline" fill="url(#SVGID_6_)" d="M348.797,432.701l-5.347-14.583h-30.138l-5.347,14.583h-9.236l24.305-67.568h9.722
		l24.305,67.568H348.797z M316.229,410.826h24.791l-12.639-34.999L316.229,410.826z"/>
	
		<linearGradient id="SVGID_7_" gradientUnits="userSpaceOnUse" x1="-9.3736" y1="784.3528" x2="110.5026" y2="784.3528" gradientTransform="matrix(4.861 0 0 -4.861 -1.9305 4209.7119)">
		<stop  offset="0" style="stop-color:#115BC4"/>
		<stop  offset="1" style="stop-color:#05BDFD"/>
	</linearGradient>
	<path display="inline" fill="url(#SVGID_7_)" d="M373.589,425.409c-4.861-5.347-7.292-11.666-7.292-19.93s2.431-14.583,7.292-19.93
		c4.861-4.861,10.694-7.778,18.472-7.778c4.375,0,8.75,0.972,12.152,3.403c3.403,2.431,5.833,4.861,7.778,8.264v-29.166h8.75v71.943
		h-8.75V421.52c-1.944,3.403-4.375,6.319-7.778,8.75c-3.403,1.944-7.292,3.403-12.152,3.403
		C384.283,433.187,378.45,430.756,373.589,425.409z M405.671,420.548c3.403-3.403,5.347-8.264,5.347-14.583
		c0-5.833-1.944-10.694-5.347-14.583c-3.403-3.403-7.778-5.347-12.639-5.347c-4.861,0-9.236,1.944-12.639,5.347
		c-3.403,3.403-5.347,8.264-5.347,14.097c0,5.833,1.944,10.694,5.347,14.583c3.403,3.889,7.778,5.833,12.639,5.833
		C398.38,425.895,402.268,423.951,405.671,420.548z"/>
	
		<linearGradient id="SVGID_8_" gradientUnits="userSpaceOnUse" x1="-9.3736" y1="782.5529" x2="110.5026" y2="782.5529" gradientTransform="matrix(4.861 0 0 -4.861 -1.9305 4209.7119)">
		<stop  offset="0" style="stop-color:#115BC4"/>
		<stop  offset="1" style="stop-color:#05BDFD"/>
	</linearGradient>
	<path display="inline" fill="url(#SVGID_8_)" d="M443.587,379.23v8.75c3.403-6.319,9.236-9.722,17.5-9.722
		c3.889,0,7.778,0.972,11.18,2.917c3.403,1.944,5.833,4.861,7.292,8.75c1.944-3.403,4.375-6.319,7.778-8.264
		s7.292-2.917,11.666-2.917c5.833,0,11.18,1.944,15.069,5.833s5.833,9.722,5.833,17.013v31.597h-8.75v-30.138
		c0-5.347-1.458-9.236-3.889-12.152s-6.319-4.375-10.694-4.375s-8.264,1.458-10.694,4.375c-2.431,2.917-3.889,6.805-3.889,12.152
		v30.138h-8.75v-30.138c0-5.347-1.458-9.236-3.889-12.152c-2.431-2.917-6.319-4.375-10.694-4.375c-4.375,0-8.264,1.458-10.694,4.375
		c-2.43,2.917-3.889,6.805-3.889,12.152v30.138h-8.75v-53.471L443.587,379.23L443.587,379.23z"/>
	
		<linearGradient id="SVGID_9_" gradientUnits="userSpaceOnUse" x1="-9.3736" y1="784.6528" x2="110.5026" y2="784.6528" gradientTransform="matrix(4.861 0 0 -4.861 -1.9305 4209.7119)">
		<stop  offset="0" style="stop-color:#115BC4"/>
		<stop  offset="1" style="stop-color:#05BDFD"/>
	</linearGradient>
	<path display="inline" fill="url(#SVGID_9_)" d="M542.751,369.021c-0.972,0.972-2.431,1.944-4.375,1.944s-2.917-0.486-4.375-1.944
		c-0.972-0.972-1.458-2.43-1.458-4.375c0-1.944,0.486-2.917,1.944-4.375c0.972-0.972,2.43-1.944,4.375-1.944
		s2.917,0.486,4.375,1.944c0.972,0.972,1.944,2.43,1.944,4.375C545.182,366.591,543.724,367.563,542.751,369.021z M534.002,432.701
		V379.23h8.75v53.471H534.002z"/>
	
		<linearGradient id="SVGID_10_" gradientUnits="userSpaceOnUse" x1="-9.3736" y1="782.6028" x2="110.5026" y2="782.6028" gradientTransform="matrix(4.861 0 0 -4.861 -1.9305 4209.7119)">
		<stop  offset="0" style="stop-color:#115BC4"/>
		<stop  offset="1" style="stop-color:#05BDFD"/>
	</linearGradient>
	<path display="inline" fill="url(#SVGID_10_)" d="M566.084,379.23v8.75c3.403-6.319,9.236-9.722,17.5-9.722
		c5.833,0,10.694,1.944,14.583,5.833c3.889,3.889,5.833,9.722,5.833,17.014v31.596h-8.75v-30.138c0-5.347-1.458-9.236-3.889-12.152
		c-2.431-2.917-6.319-4.375-10.694-4.375c-4.375,0-8.264,1.458-10.694,4.375s-3.889,6.805-3.889,12.152v30.138h-8.75V379.23
		C557.334,379.23,566.084,379.23,566.084,379.23z"/>
</g>
<polygon fill="#FFFFFF" stroke="#000000" stroke-miterlimit="10" points="122.011,144.929 122.011,144.929 122.011,144.929 "/>
<text transform="matrix(1 0 0 1 88.5 390.5)"><tspan x="0" y="0" fill="#236BB4" font-family="'TypoGotikaBlackDemo'" font-size="36">BREAST CANCER DIAGNOSTIC</tspan><tspan x="0" y="43.2" fill="#236BB4" font-family="'TypoGotikaBlackDemo'" font-size="36">SUITE</tspan></text>
</svg>
