<?xml version="1.0" encoding="iso-8859-1"?>
<!-- Generator: Adobe Illustrator 21.0.0, SVG Export Plug-In . SVG Version: 6.00 Build 0)  -->
<svg version="1.1" id="Capa_1" xmlns="http://www.w3.org/2000/svg" xmlns:xlink="http://www.w3.org/1999/xlink" x="0px" y="0px"
	 viewBox="0 0 992.903 992.903" style="enable-background:new 0 0 992.903 992.903;" xml:space="preserve">
<g>
	<g id="Tablet_Application-26">
		
			<linearGradient id="SVGID_1_" gradientUnits="userSpaceOnUse" x1="-18.6169" y1="494.4516" x2="1013.6383" y2="494.4516" gradientTransform="matrix(1 0 0 -1 0 990.9032)">
			<stop  offset="0" style="stop-color:#FFF33B"/>
			<stop  offset="0.014" style="stop-color:#FEE72E"/>
			<stop  offset="0.042" style="stop-color:#FED51B"/>
			<stop  offset="0.07" style="stop-color:#FDCA10"/>
			<stop  offset="0.1" style="stop-color:#FDC70C"/>
			<stop  offset="0.4" style="stop-color:#F3903F"/>
			<stop  offset="0.8" style="stop-color:#ED683C"/>
			<stop  offset="1" style="stop-color:#E93E3A"/>
		</linearGradient>
		<path style="fill:url(#SVGID_1_);" d="M975.379,461.253c-10.946-14.944-26.67-25.698-44.565-30.482
			c-1.341-0.344-2.72-0.517-4.104-0.513h-0.43c10.952-14.238,16.918-31.682,16.979-49.645c0-45.697-37.045-82.742-82.742-82.742
			s-82.742,37.045-82.742,82.742c0.113,7.994,1.401,15.929,3.823,23.548c-5.144-2.763-10.584-4.934-16.217-6.47
			c-1.357-0.35-2.752-0.528-4.154-0.53h-0.43c10.952-14.238,16.918-31.682,16.979-49.645c0-45.697-37.045-82.742-82.742-82.742
			c-45.697,0-82.742,37.045-82.742,82.742c0.061,17.963,6.027,35.407,16.979,49.645h-0.43c-1.401,0.002-2.797,0.18-4.154,0.53
			c-5.633,1.536-11.074,3.707-16.217,6.47c2.421-7.62,3.709-15.554,3.823-23.548c0-45.697-37.045-82.742-82.742-82.742
			s-82.742,37.045-82.742,82.742c0.061,17.963,6.027,35.407,16.979,49.645h-0.43c-1.413-0.002-2.821,0.182-4.187,0.546
			c-36.724,10.45-62.044,44.014-62.007,82.196v66.194c0,9.139,7.409,16.548,16.548,16.548h33.097v115.839
			c0,9.139,7.409,16.548,16.548,16.548c9.139,0,16.548-7.409,16.548-16.548V579.194c0-9.139-7.409-16.548-16.548-16.548h-33.097V513
			c0.081-22.384,14.275-42.282,35.414-49.645h98.777c-1.144,5.443-1.748,10.986-1.804,16.548v66.194
			c0,9.139,7.409,16.548,16.548,16.548h33.097v115.839c0,9.139,7.409,16.548,16.548,16.548c9.139,0,16.548-7.409,16.548-16.548
			V546.097c0-9.139-7.409-16.548-16.548-16.548h-33.097v-49.645c0.031-22.39,14.227-42.309,35.38-49.645h127.82
			c21.154,7.337,35.349,27.255,35.38,49.645v49.645h-33.097c-9.139,0-16.548,7.409-16.548,16.548v132.387
			c0,9.139,7.409,16.548,16.548,16.548c9.139,0,16.548-7.409,16.548-16.548V562.645h33.097c9.139,0,16.548-7.409,16.548-16.548
			v-66.194c-0.056-5.562-0.66-11.105-1.804-16.548h98.827c9.857,3.174,18.444,9.412,24.508,17.806
			c6.983,9.151,10.794,20.328,10.856,31.839v49.645H926.71c-9.139,0-16.548,7.409-16.548,16.548v132.387
			c0,9.139,7.409,16.548,16.548,16.548c9.139,0,16.548-7.409,16.548-16.548V595.742h33.097c9.139,0,16.548-7.409,16.548-16.548V513
			C992.838,494.305,986.686,476.141,975.379,461.253z M479.903,380.613c0-27.418,22.227-49.645,49.645-49.645
			c27.418,0,49.645,22.227,49.645,49.645s-22.227,49.645-49.645,49.645C502.13,430.258,479.903,408.031,479.903,380.613z
			 M645.387,347.516c0-27.418,22.227-49.645,49.645-49.645c27.418,0,49.645,22.227,49.645,49.645
			c0,27.418-22.227,49.645-49.645,49.645C667.614,397.161,645.387,374.934,645.387,347.516z M860.516,330.968
			c27.418,0,49.645,22.227,49.645,49.645s-22.227,49.645-49.645,49.645c-27.418,0-49.645-22.227-49.645-49.645
			S833.098,330.968,860.516,330.968z"/>
		
			<linearGradient id="SVGID_2_" gradientUnits="userSpaceOnUse" x1="-18.6169" y1="494.4516" x2="1013.6383" y2="494.4516" gradientTransform="matrix(1 0 0 -1 0 990.9032)">
			<stop  offset="0" style="stop-color:#FFF33B"/>
			<stop  offset="0.014" style="stop-color:#FEE72E"/>
			<stop  offset="0.042" style="stop-color:#FED51B"/>
			<stop  offset="0.07" style="stop-color:#FDCA10"/>
			<stop  offset="0.1" style="stop-color:#FDC70C"/>
			<stop  offset="0.4" style="stop-color:#F3903F"/>
			<stop  offset="0.8" style="stop-color:#ED683C"/>
			<stop  offset="1" style="stop-color:#E93E3A"/>
		</linearGradient>
		<path style="fill:url(#SVGID_2_);" d="M810.871,860.516H182.032V728.129h27.884c27.382,57.77,96.41,82.404,154.18,55.022
			c57.77-27.382,82.404-96.41,55.022-154.18c-16.626-35.077-49.727-59.486-88.151-65.002v-17.872
			c-0.085-55.387-39.314-102.988-93.664-113.654c37.816-39.534,36.424-102.239-3.111-140.056
			c-14.371-13.746-32.546-22.849-52.161-26.123V132.387h628.839v148.935h33.097V82.742C843.913,37.068,806.9,0.055,761.226,0
			H231.677c-45.674,0.055-82.687,37.068-82.742,82.742v183.522c-53.962,9.009-90.404,60.056-81.395,114.018
			c3.275,19.615,12.377,37.79,26.123,52.161C39.314,443.109,0.085,490.71,0,546.097v132.387c0,27.418,22.227,49.645,49.645,49.645
			h99.29v182.032c0.055,45.674,37.068,82.687,82.742,82.742h529.548c45.674-0.055,82.687-37.068,82.742-82.742V711.581h-33.097
			V860.516z M397.161,678.484c0,45.697-37.045,82.742-82.742,82.742s-82.742-37.045-82.742-82.742s37.045-82.742,82.742-82.742
			C360.094,595.797,397.107,632.809,397.161,678.484z M231.677,33.097h529.548c27.418,0,49.645,22.227,49.645,49.645V99.29H182.032
			V82.742C182.032,55.324,204.259,33.097,231.677,33.097z M165.484,297.871c36.558,0,66.194,29.636,66.194,66.194
			s-29.636,66.194-66.194,66.194S99.29,400.622,99.29,364.065S128.926,297.871,165.484,297.871z M33.097,678.484V546.097
			c0.055-45.674,37.068-82.687,82.742-82.742h99.29c45.674,0.055,82.687,37.068,82.742,82.742v17.872
			c-62.779,8.517-106.768,66.314-98.251,129.093c0.089,0.657,0.184,1.314,0.285,1.97H49.645
			C40.506,695.032,33.097,687.623,33.097,678.484z M761.226,959.806H231.677c-27.418,0-49.645-22.227-49.645-49.645v-16.548h628.839
			v16.548C810.871,937.58,788.644,959.806,761.226,959.806z"/>
		
			<linearGradient id="SVGID_3_" gradientUnits="userSpaceOnUse" x1="-18.6169" y1="808.871" x2="1013.6383" y2="808.871" gradientTransform="matrix(1 0 0 -1 0 990.9032)">
			<stop  offset="0" style="stop-color:#FFF33B"/>
			<stop  offset="0.014" style="stop-color:#FEE72E"/>
			<stop  offset="0.042" style="stop-color:#FED51B"/>
			<stop  offset="0.07" style="stop-color:#FDCA10"/>
			<stop  offset="0.1" style="stop-color:#FDC70C"/>
			<stop  offset="0.4" style="stop-color:#F3903F"/>
			<stop  offset="0.8" style="stop-color:#ED683C"/>
			<stop  offset="1" style="stop-color:#E93E3A"/>
		</linearGradient>
		<rect x="744.677" y="165.484" style="fill:url(#SVGID_3_);" width="33.097" height="33.097"/>
		
			<linearGradient id="SVGID_4_" gradientUnits="userSpaceOnUse" x1="-18.6169" y1="808.871" x2="1013.6383" y2="808.871" gradientTransform="matrix(1 0 0 -1 0 990.9032)">
			<stop  offset="0" style="stop-color:#FFF33B"/>
			<stop  offset="0.014" style="stop-color:#FEE72E"/>
			<stop  offset="0.042" style="stop-color:#FED51B"/>
			<stop  offset="0.07" style="stop-color:#FDCA10"/>
			<stop  offset="0.1" style="stop-color:#FDC70C"/>
			<stop  offset="0.4" style="stop-color:#F3903F"/>
			<stop  offset="0.8" style="stop-color:#ED683C"/>
			<stop  offset="1" style="stop-color:#E93E3A"/>
		</linearGradient>
		<rect x="678.484" y="165.484" style="fill:url(#SVGID_4_);" width="33.097" height="33.097"/>
		
			<linearGradient id="SVGID_5_" gradientUnits="userSpaceOnUse" x1="-18.6169" y1="808.871" x2="1013.6383" y2="808.871" gradientTransform="matrix(1 0 0 -1 0 990.9032)">
			<stop  offset="0" style="stop-color:#FFF33B"/>
			<stop  offset="0.014" style="stop-color:#FEE72E"/>
			<stop  offset="0.042" style="stop-color:#FED51B"/>
			<stop  offset="0.07" style="stop-color:#FDCA10"/>
			<stop  offset="0.1" style="stop-color:#FDC70C"/>
			<stop  offset="0.4" style="stop-color:#F3903F"/>
			<stop  offset="0.8" style="stop-color:#ED683C"/>
			<stop  offset="1" style="stop-color:#E93E3A"/>
		</linearGradient>
		<rect x="612.29" y="165.484" style="fill:url(#SVGID_5_);" width="33.097" height="33.097"/>
		
			<linearGradient id="SVGID_6_" gradientUnits="userSpaceOnUse" x1="-18.6169" y1="808.871" x2="1013.6383" y2="808.871" gradientTransform="matrix(1 0 0 -1 0 990.9032)">
			<stop  offset="0" style="stop-color:#FFF33B"/>
			<stop  offset="0.014" style="stop-color:#FEE72E"/>
			<stop  offset="0.042" style="stop-color:#FED51B"/>
			<stop  offset="0.07" style="stop-color:#FDCA10"/>
			<stop  offset="0.1" style="stop-color:#FDC70C"/>
			<stop  offset="0.4" style="stop-color:#F3903F"/>
			<stop  offset="0.8" style="stop-color:#ED683C"/>
			<stop  offset="1" style="stop-color:#E93E3A"/>
		</linearGradient>
		<rect x="215.129" y="165.484" style="fill:url(#SVGID_6_);" width="33.097" height="33.097"/>
		
			<linearGradient id="SVGID_7_" gradientUnits="userSpaceOnUse" x1="-18.6169" y1="64.1936" x2="1013.6383" y2="64.1936" gradientTransform="matrix(1 0 0 -1 0 990.9032)">
			<stop  offset="0" style="stop-color:#FFF33B"/>
			<stop  offset="0.014" style="stop-color:#FEE72E"/>
			<stop  offset="0.042" style="stop-color:#FED51B"/>
			<stop  offset="0.07" style="stop-color:#FDCA10"/>
			<stop  offset="0.1" style="stop-color:#FDC70C"/>
			<stop  offset="0.4" style="stop-color:#F3903F"/>
			<stop  offset="0.8" style="stop-color:#ED683C"/>
			<stop  offset="1" style="stop-color:#E93E3A"/>
		</linearGradient>
		<path style="fill:url(#SVGID_7_);" d="M529.548,910.161h-66.194c-9.139,0-16.548,7.409-16.548,16.548
			c0,9.139,7.409,16.548,16.548,16.548h66.194c9.139,0,16.548-7.409,16.548-16.548C546.097,917.57,538.688,910.161,529.548,910.161z
			"/>
		
			<linearGradient id="SVGID_8_" gradientUnits="userSpaceOnUse" x1="-18.6169" y1="312.4193" x2="1013.6383" y2="312.4193" gradientTransform="matrix(1 0 0 -1 0 990.9032)">
			<stop  offset="0" style="stop-color:#FFF33B"/>
			<stop  offset="0.014" style="stop-color:#FEE72E"/>
			<stop  offset="0.042" style="stop-color:#FED51B"/>
			<stop  offset="0.07" style="stop-color:#FDCA10"/>
			<stop  offset="0.1" style="stop-color:#FDC70C"/>
			<stop  offset="0.4" style="stop-color:#F3903F"/>
			<stop  offset="0.8" style="stop-color:#ED683C"/>
			<stop  offset="1" style="stop-color:#E93E3A"/>
		</linearGradient>
		<polygon style="fill:url(#SVGID_8_);" points="297.871,628.839 297.871,661.935 264.774,661.935 264.774,695.032 297.871,695.032 
			297.871,728.129 330.968,728.129 330.968,695.032 364.065,695.032 364.065,661.935 330.968,661.935 330.968,628.839 		"/>
	</g>
</g>
<g>
</g>
<g>
</g>
<g>
</g>
<g>
</g>
<g>
</g>
<g>
</g>
<g>
</g>
<g>
</g>
<g>
</g>
<g>
</g>
<g>
</g>
<g>
</g>
<g>
</g>
<g>
</g>
<g>
</g>
</svg>
